{"title":"American Gods S01E07 A Prayer for Mad 720p WEBRip HEVC 2CH x265","magnet":"magnet:?xt=urn:btih:303770301456401b867ba2f542de23c4e1e28299&dn=American+Gods+S01E07+A+Prayer+for+Mad+720p+WEBRip+HEVC+2CH+x265&tr=udp%3A%2F%2Ftracker.leechers-paradise.org%3A6969&tr=udp%3A%2F%2Fzer0day.ch%3A1337&tr=udp%3A%2F%2Fopen.demonii.com%3A1337&tr=udp%3A%2F%2Ftracker.coppersurfer.tk%3A6969&tr=udp%3A%2F%2Fexodus.desync.com%3A6969","uploader":"nayhtut","categoryP":"video","categoryS":"hd___tv_shows","size":"414618842","seeders":"85","leechers":"17","description":"Source: American Gods S01E07 1080p WEBRip x264-MOROSE (2.75 GB)\r\n\r\n\r\nComplete name:\r\nAmerican.Gods.S01E07.A.Prayer.for.Mad.Sweeney.720p.WEBRip.HEVC.2CH.x265.mkv\r\nFormat                                   : Matroska\r\nFormat version                           : Version 4 / Version 2\r\nFile size                                : 395 MiB\r\nDuration                                 : 51mn 33s\r\nOverall bit rate                         : 1 072 Kbps\r\nWriting application                      : Lavf57.25.100\r\n\r\nVideo\r\n\r\nID                                       : 1\r\nFormat                                   : V_MPEGH/ISO/HEVC\r\nDuration                                 : 51mn 33s\r\nBit rate                                 : 827 Kbps\r\nWidth                                    : 1 280 pixels\r\nHeight                                   : 720 pixels\r\nDisplay aspect ratio                     : 16:9\r\nFrame rate                               : 25.000 fps\r\nBits/(Pixel*Frame)                       : 0.036\r\nStream size                              : 305 MiB (77%)\r\nDefault                                  : Yes\r\nForced                                   : No\r\nDURATION                                 : 00:51:33.931000000\r\n\r\nAudio\r\n\r\nID                                       : 2\r\nFormat                                   : E-AC-3\r\nFormat/Info                              : Audio Coding 3\r\nFormat settings, Endianness              : Big\r\nCodec ID                                 : A_EAC3\r\nDuration                                 : 51mn 33s\r\nBit rate mode                            : Constant\r\nBit rate                                 : 224 Kbps\r\nChannel(s)                               : 2 channels\r\nChannel positions                        : Front: L R\r\nSampling rate                            : 48.0 KHz\r\nBit depth                                : 32 bits\r\nCompression mode                         : Lossy\r\nStream size                              : 82.6 MiB (21%)\r\nWriting library                          : Lavc57.24.102 eac3\r\nDefault                                  : Yes\r\nForced                                   : No\r\nDURATION                                 : 00:51:33.951000000\r\n\r\nText\r\n\r\nID                                       : 3\r\nLanguage                                 : English","last_updated":"2017-06-12T12:07:26.579Z","parsed":{"xt":"urn:btih:303770301456401b867ba2f542de23c4e1e28299","dn":"American Gods S01E07 A Prayer for Mad 720p WEBRip HEVC 2CH x265","tr":["udp://exodus.desync.com:6969","udp://open.demonii.com:1337","udp://tracker.coppersurfer.tk:6969","udp://tracker.leechers-paradise.org:6969","udp://zer0day.ch:1337"],"infoHash":"303770301456401b867ba2f542de23c4e1e28299","infoHashBuffer":{"type":"Buffer","data":[48,55,112,48,20,86,64,27,134,123,162,245,66,222,35,196,225,226,130,153]},"name":"American Gods S01E07 A Prayer for Mad 720p WEBRip HEVC 2CH x265","announce":["udp://exodus.desync.com:6969","udp://open.demonii.com:1337","udp://tracker.coppersurfer.tk:6969","udp://tracker.leechers-paradise.org:6969","udp://zer0day.ch:1337"],"urlList":[]}}